<svg width="253" height="21" viewBox="0 0 253 21" fill="none" xmlns="http://www.w3.org/2000/svg">
<path d="M96.9311 10.2789C96.9311 8.60926 97.3036 7.11789 98.0487 5.80484C98.81 4.47558 99.8385 3.44621 101.134 2.71674C102.446 1.97105 103.912 1.59821 105.532 1.59821C107.427 1.59821 109.087 2.08453 110.513 3.05716C111.938 4.02979 112.934 5.37526 113.501 7.09358H109.589C109.201 6.28305 108.65 5.67516 107.937 5.26989C107.241 4.86463 106.431 4.662 105.508 4.662C104.52 4.662 103.637 4.89705 102.859 5.36716C102.098 5.82105 101.499 6.46947 101.061 7.31242C100.64 8.15537 100.43 9.14421 100.43 10.2789C100.43 11.3975 100.64 12.3863 101.061 13.2455C101.499 14.0884 102.098 14.7449 102.859 15.2151C103.637 15.6689 104.52 15.8959 105.508 15.8959C106.431 15.8959 107.241 15.6933 107.937 15.288C108.65 14.8665 109.201 14.2505 109.589 13.44H113.501C112.934 15.1745 111.938 16.5281 110.513 17.5007C109.103 18.4572 107.443 18.9354 105.532 18.9354C103.912 18.9354 102.446 18.5706 101.134 17.8412C99.8385 17.0955 98.81 16.0661 98.0487 14.7531C97.3036 13.44 96.9311 11.9486 96.9311 10.2789Z" fill="white"/>
<path d="M131.057 15.5555H124.303L123.185 18.7895H119.614L125.712 1.79274H129.672L135.771 18.7895H132.175L131.057 15.5555ZM130.134 12.8321L127.68 5.73189L125.226 12.8321H130.134Z" fill="white"/>
<path d="M145.703 16.0904H151.291V18.7895H142.302V1.81705H145.703V16.0904Z" fill="white"/>
<path d="M161.107 4.56474V8.82H166.816V11.5191H161.107V16.0175H167.545V18.7895H157.705V1.79274H167.545V4.56474H161.107Z" fill="white"/>
<path d="M189.393 18.7895H185.992L178.29 7.14221V18.7895H174.888V1.79274H178.29L185.992 13.4643V1.79274H189.393V18.7895Z" fill="white"/>
<path d="M202.935 1.81705C204.716 1.81705 206.28 2.16558 207.624 2.86263C208.984 3.55968 210.029 4.55663 210.758 5.85347C211.503 7.13411 211.876 8.62547 211.876 10.3276C211.876 12.0297 211.503 13.5211 210.758 14.8017C210.029 16.0661 208.984 17.0468 207.624 17.7439C206.28 18.4409 204.716 18.7895 202.935 18.7895H197.006V1.81705H202.935ZM202.813 15.8959C204.595 15.8959 205.972 15.4096 206.944 14.4369C207.915 13.4643 208.401 12.0945 208.401 10.3276C208.401 8.56063 207.915 7.18274 206.944 6.19389C205.972 5.18884 204.595 4.68631 202.813 4.68631H200.408V15.8959H202.813Z" fill="white"/>
<path d="M229.073 15.5555H222.318L221.201 18.7895H217.629L223.727 1.79274H227.688L233.786 18.7895H230.19L229.073 15.5555ZM228.149 12.8321L225.695 5.73189L223.241 12.8321H228.149Z" fill="white"/>
<path d="M249.064 18.7895L245.322 12.1756H243.719V18.7895H240.317V1.81705H246.683C247.995 1.81705 249.113 2.0521 250.036 2.52221C250.959 2.9761 251.648 3.60021 252.101 4.39453C252.571 5.17263 252.806 6.048 252.806 7.02063C252.806 8.13916 252.482 9.15232 251.834 10.0601C251.186 10.9517 250.222 11.5677 248.943 11.9081L253 18.7895H249.064ZM243.719 9.62242H246.562C247.485 9.62242 248.173 9.40358 248.627 8.96589C249.08 8.512 249.307 7.88789 249.307 7.09358C249.307 6.31547 249.08 5.71568 248.627 5.29421C248.173 4.85653 247.485 4.63768 246.562 4.63768H243.719V9.62242Z" fill="white"/>
<path d="M21.7148 11.9438L12.2034 21H0L15.1645 6.34375C20.7726 0.875002 23.5094 3.59708e-06 33.1106 3.59708e-06H71.0666L62.8114 7.875H34.1873C27.0089 7.875 25.4835 8.4 21.7148 11.9438ZM61.6 9.1H34.3668C27.1435 9.1 26.0218 9.625 22.7467 12.8188L14.4017 21H25.7078L28.3997 18.375C30.1943 16.625 30.957 16.4938 34.5463 16.4938H54.0626L61.6 9.1ZM64.5611 21L86.1413 0H72.7266L51.1913 21H64.5611Z" fill="#EE0000"/>
</svg>
